<?xml version="1.0" standalone="no"?>
<!DOCTYPE svg PUBLIC "-//W3C//DTD SVG 20010904//EN"
 "http://www.w3.org/TR/2001/REC-SVG-20010904/DTD/svg10.dtd">
<svg version="1.0" xmlns="http://www.w3.org/2000/svg"
 width="512.000000pt" height="512.000000pt" viewBox="0 0 512.000000 512.000000"
 preserveAspectRatio="xMidYMid meet">
<metadata>
Created by potrace 1.14, written by Peter Selinger 2001-2017
</metadata>
<g transform="translate(0.000000,512.000000) scale(0.100000,-0.100000)"
fill="#000000" stroke="none">
<path d="M148 4113 c28 -32 85 -96 126 -143 l76 -85 0 -865 c0 -995 0 -989
-84 -1109 -31 -44 -150 -139 -219 -176 -33 -17 -37 -24 -37 -57 l0 -38 413 0
c394 0 413 -1 437 -20 25 -19 24 -20 -412 -20 l-438 0 0 -60 0 -60 525 0 c289
0 525 3 525 6 0 11 -174 270 -211 316 -75 89 -89 137 -100 331 -5 94 -8 370
-7 612 l3 440 226 -770 226 -770 99 0 98 0 318 970 317 970 1 -120 0 -120
-311 -873 -312 -872 -90 0 c-87 0 -89 0 -84 -22 3 -13 9 -40 12 -60 l7 -38
123 0 123 0 49 152 c27 84 146 453 264 820 l214 667 3 -605 2 -606 -126 -134
-126 -134 472 0 c448 0 472 1 459 18 -7 9 4 1 24 -18 l38 -35 -460 -3 -460 -2
21 -60 20 -60 539 0 c444 0 539 2 532 13 -4 7 -79 104 -165 215 l-158 201 0
948 0 948 102 80 c56 44 106 83 112 87 7 5 -4 22 -29 47 l-40 40 -135 -92
-135 -91 62 74 c35 41 90 108 124 148 l61 72 -526 0 c-289 0 -526 -2 -526 -5
0 -3 52 -70 115 -149 l114 -143 -224 -653 c-124 -359 -226 -655 -228 -656 -2
-2 -94 279 -206 624 -112 345 -205 632 -208 637 -2 6 51 51 117 100 l120 89
-37 38 c-21 21 -43 36 -50 34 -13 -6 -283 -207 -283 -212 0 -1 110 -324 244
-716 l244 -714 -12 -59 c-6 -33 -14 -55 -18 -50 -3 6 -117 353 -252 773 l-248
763 121 128 c67 71 128 134 136 141 8 7 15 16 15 21 0 5 -235 9 -536 9 l-536
0 50 -57z m2362 -1234 c0 -651 -3 -978 -10 -974 -11 7 -15 1937 -3 1948 3 4 8
7 10 7 2 0 3 -441 3 -981z m-1901 -104 c8 -805 8 -813 57 -909 14 -28 13 -29
-5 -12 -22 20 -47 95 -62 191 -8 46 -12 330 -14 835 -2 522 0 748 7 710 5 -30
13 -397 17 -815z"/>
<path d="M3991 4059 c57 -61 117 -126 132 -145 l28 -33 -3 -893 c-4 -880 -4
-894 -25 -956 -40 -118 -102 -194 -178 -219 -27 -9 -35 -6 -72 25 -63 51 -131
152 -165 245 -40 109 -48 265 -24 452 9 72 19 138 22 148 5 15 -2 17 -58 17
l-64 0 -18 -102 c-28 -153 -33 -390 -11 -481 32 -134 98 -229 201 -292 45 -28
42 -31 -11 -9 -92 38 -161 123 -202 248 -23 72 -27 100 -30 256 -3 117 0 216
10 300 9 69 15 126 14 126 -1 1 -149 -109 -328 -245 l-326 -247 61 -18 c68
-19 75 -26 110 -119 138 -367 388 -527 822 -527 215 0 368 38 519 128 155 93
275 253 300 401 l7 43 30 -29 29 -30 -26 -64 c-47 -116 -122 -212 -229 -293
-195 -148 -374 -206 -636 -206 -199 0 -293 24 -476 119 l-134 71 0 -35 c0 -30
8 -40 68 -88 85 -69 192 -123 307 -155 122 -33 356 -42 492 -18 212 37 384
124 525 268 122 123 199 255 233 395 l12 53 -36 27 c-56 43 -69 63 -86 135
-13 57 -15 172 -15 785 l0 718 96 103 96 103 -27 39 c-15 22 -31 40 -36 40 -4
0 -64 -53 -133 -117 l-126 -118 3 -787 c1 -530 -1 -780 -8 -765 -6 14 -11 303
-12 782 l-3 760 130 152 c72 84 130 155 130 158 0 3 -221 5 -491 5 l-491 0
103 -111z"/>
</g>
</svg>
